<svg xmlns="http://www.w3.org/2000/svg" xmlns:xlink="http://www.w3.org/1999/xlink" width="500" zoomAndPan="magnify" viewBox="0 0 375 374.999991" height="500" preserveAspectRatio="xMidYMid meet" version="1.0"><defs><g/><clipPath id="a36eaf253e"><path d="M 153.566406 174.554688 L 210.566406 174.554688 L 210.566406 218.804688 L 153.566406 218.804688 Z M 153.566406 174.554688 " clip-rule="nonzero"/></clipPath></defs><g clip-path="url(#a36eaf253e)"><path fill="#ffde59" d="M 203.125 188.648438 C 203.742188 189.730469 204.113281 191.507812 204.238281 193.976562 C 204.378906 196.53125 204.71875 198.316406 205.257812 199.34375 C 205.121094 200.53125 205.566406 201.859375 206.601562 203.328125 C 207.898438 205.15625 208.632812 206.355469 208.808594 206.925781 C 208.984375 207.777344 209.132812 209.09375 209.246094 210.875 C 209.433594 212.414062 209.796875 213.625 210.339844 214.511719 C 210.125 216.535156 209.433594 217.847656 208.261719 218.441406 C 207.34375 218.707031 206.738281 218.523438 206.449219 217.882812 C 206.3125 217.449219 206.367188 216.96875 206.617188 216.429688 L 207.203125 214.964844 C 207.46875 212.609375 206.960938 210.707031 205.675781 209.25 C 205.03125 208.027344 204.585938 206.84375 204.332031 205.703125 C 203.679688 205.015625 203.21875 204.496094 202.957031 204.148438 C 202.453125 203.554688 202.195312 202.945312 202.179688 202.328125 C 201.363281 201.652344 200.636719 200.796875 200.007812 199.761719 L 198.648438 196.914062 L 195.890625 198.730469 C 194.769531 199.453125 193.910156 200.125 193.304688 200.753906 C 193.078125 201.464844 193.214844 202.328125 193.71875 203.34375 C 194.3125 204.554688 194.625 205.378906 194.664062 205.824219 C 194.046875 207.90625 194.457031 210.207031 195.890625 212.726562 C 196.019531 213.203125 195.789062 213.558594 195.210938 213.789062 L 193.738281 214.210938 L 190.792969 215.066406 C 189.546875 215.285156 188.488281 215.214844 187.621094 214.855469 C 187.65625 214.355469 187.976562 214.027344 188.582031 213.878906 C 189.402344 213.632812 189.886719 213.433594 190.035156 213.28125 C 190.175781 213.121094 190.566406 212.800781 191.207031 212.324219 C 191.738281 211.914062 192.050781 211.511719 192.152344 211.117188 C 192.101562 210.277344 191.90625 209.230469 191.566406 207.972656 C 191.113281 206.457031 190.867188 205.433594 190.832031 204.894531 C 190.148438 203.523438 189.695312 202.492188 189.46875 201.804688 C 189.042969 200.5 189.351562 199.496094 190.394531 198.796875 C 191.441406 195.980469 192.953125 193.457031 194.929688 191.234375 L 195.136719 190.515625 C 195.1875 190.238281 195.117188 190.003906 194.929688 189.816406 C 194.6875 189.46875 194.234375 189.054688 193.570312 188.578125 C 192.761719 188.042969 192.253906 187.675781 192.039062 187.476562 L 190.226562 190.304688 L 189.640625 191.425781 C 189.375 191.855469 189.042969 192.140625 188.640625 192.28125 C 187.960938 191.964844 187.046875 191.738281 185.902344 191.597656 L 183.011719 191.230469 C 179.5625 192.164062 176.582031 192.609375 174.078125 192.574219 C 173.699219 192.109375 173.355469 191.484375 173.039062 190.707031 L 172.152344 188.835938 L 169.148438 190.667969 C 167.964844 191.367188 167.375 192.253906 167.375 193.324219 C 168.683594 194.070312 169.929688 195.066406 171.113281 196.3125 C 171.90625 197.1875 172.894531 198.417969 174.078125 200 C 174.757812 200.746094 174.6875 201.554688 173.871094 202.429688 L 171.867188 204.5625 L 169.335938 207.234375 C 168.34375 208.246094 167.625 209.207031 167.183594 210.117188 C 167.472656 211.792969 167.945312 212.949219 168.601562 213.578125 L 169.546875 213.945312 C 169.9375 214.070312 170.132812 214.304688 170.132812 214.640625 C 169.527344 215.214844 168.542969 215.347656 167.183594 215.042969 L 165.617188 213.347656 C 165 212.660156 164.378906 212.253906 163.746094 212.125 C 163.117188 211.914062 162.917969 211.398438 163.144531 210.570312 C 163.355469 210.265625 163.816406 209.894531 164.523438 209.453125 C 165.253906 208.988281 165.71875 208.566406 165.917969 208.195312 L 167.5625 204.558594 C 168.21875 203.070312 169.21875 202.179688 170.566406 201.886719 C 170.679688 201.734375 170.722656 201.609375 170.699219 201.503906 C 168.34375 200.535156 166.460938 199.609375 165.050781 198.722656 C 164.863281 199.574219 164.699219 200.914062 164.558594 202.742188 C 164.296875 204.316406 163.628906 205.4375 162.558594 206.113281 C 162.179688 207.128906 161.28125 208.421875 159.855469 209.992188 C 158.371094 211.578125 157.441406 212.847656 157.0625 213.800781 C 157.035156 214.464844 157.390625 215.09375 158.121094 215.6875 L 159.96875 217.121094 C 160.03125 217.332031 159.964844 217.484375 159.761719 217.578125 L 159.234375 217.839844 C 158.1875 218.140625 157.15625 218.042969 156.136719 217.539062 C 155.496094 217.203125 154.683594 216.597656 153.699219 215.722656 C 153.613281 215.175781 153.769531 214.582031 154.171875 213.941406 C 154.765625 213.195312 155.148438 212.636719 155.324219 212.265625 L 157.097656 207.964844 C 157.84375 206.265625 158.835938 205 160.082031 204.175781 C 160.675781 203.476562 160.871094 202.539062 160.667969 201.363281 C 160.277344 200.023438 160.082031 199.042969 160.082031 198.425781 C 160.160156 197.585938 160.089844 196.429688 159.875 194.949219 C 159.660156 193.421875 159.578125 192.28125 159.628906 191.523438 C 159.71875 190.582031 160.453125 189.527344 161.839844 188.363281 C 163.324219 187.222656 164.125 186.183594 164.238281 185.253906 C 166.53125 182.28125 169.871094 180.425781 174.265625 179.679688 L 175.097656 179.785156 C 175.285156 179.65625 175.4375 179.3125 175.550781 178.753906 C 175.613281 178.3125 175.867188 178.085938 176.308594 178.074219 C 176.34375 177.828125 176.566406 177.640625 176.96875 177.515625 C 177.332031 177.351562 177.515625 177.136719 177.515625 176.867188 C 178.207031 176.589844 179.132812 176.675781 180.292969 177.128906 C 180.40625 176.546875 180.859375 176.109375 181.652344 175.820312 C 182.484375 175.503906 183.019531 175.097656 183.257812 174.597656 L 184.996094 174.5625 C 185.648438 174.621094 186.050781 174.882812 186.203125 175.347656 C 186.355469 175.488281 186.574219 175.558594 186.863281 175.558594 L 187.070312 176.554688 C 187.109375 176.925781 187.242188 177.214844 187.46875 177.410156 C 190.339844 177.410156 192.421875 177.855469 193.71875 178.738281 C 194.136719 179.613281 195.0625 180.511719 196.496094 181.429688 C 198.070312 182.421875 199.101562 183.3125 199.59375 184.105469 C 199.871094 184.410156 200.394531 185.199219 201.160156 186.480469 C 201.816406 187.496094 202.46875 188.21875 203.125 188.648438 M 188.488281 185.292969 C 188.488281 184.125 188.519531 183.28125 188.582031 182.757812 C 188.15625 183.003906 187.582031 183.222656 186.863281 183.421875 L 184.996094 183.804688 L 184.464844 185.203125 C 184.265625 185.726562 184.164062 186.21875 184.164062 186.671875 C 184.65625 187.542969 185.0625 188.035156 185.390625 188.140625 L 186.617188 188.175781 L 187.675781 188.839844 C 187.636719 188.699219 187.652344 188.511719 187.714844 188.277344 L 187.769531 187.667969 C 188.238281 187.144531 188.476562 186.351562 188.488281 185.292969 M 176.042969 189.289062 L 181.726562 189.554688 C 182.304688 189.460938 182.628906 189.292969 182.691406 189.046875 C 181.746094 188.765625 181.023438 187.933594 180.519531 186.546875 L 178.933594 186.375 L 176.949219 185.988281 C 176.15625 185.859375 175.519531 185.925781 175.042969 186.179688 L 175.644531 187.664062 C 175.910156 188.269531 176.042969 188.8125 176.042969 189.289062 " fill-opacity="1" fill-rule="nonzero"/></g><g fill="#ffffff" fill-opacity="0.4"><g transform="translate(3.123653, 172.470517)"><g><path d="M 18.765625 -44.96875 C 22.847656 -44.96875 26.21875 -44.472656 28.875 -43.484375 C 31.53125 -42.503906 33.503906 -41.019531 34.796875 -39.03125 C 36.085938 -37.039062 36.734375 -34.53125 36.734375 -31.5 C 36.734375 -29.445312 36.34375 -27.648438 35.5625 -26.109375 C 34.78125 -24.578125 33.753906 -23.273438 32.484375 -22.203125 C 31.210938 -21.140625 29.835938 -20.269531 28.359375 -19.59375 L 41.59375 0 L 31.015625 0 L 20.265625 -17.25 L 15.203125 -17.25 L 15.203125 0 L 5.65625 0 L 5.65625 -44.96875 Z M 18.09375 -37.15625 L 15.203125 -37.15625 L 15.203125 -25.015625 L 18.265625 -25.015625 C 21.429688 -25.015625 23.691406 -25.539062 25.046875 -26.59375 C 26.410156 -27.644531 27.09375 -29.195312 27.09375 -31.25 C 27.09375 -33.382812 26.359375 -34.898438 24.890625 -35.796875 C 23.429688 -36.703125 21.164062 -37.15625 18.09375 -37.15625 Z M 18.09375 -37.15625 "/></g></g></g><g fill="#ffffff" fill-opacity="0.4"><g transform="translate(44.705758, 172.470517)"><g><path d="M 33.1875 0 L 29.9375 -10.703125 L 13.53125 -10.703125 L 10.28125 0 L 0 0 L 15.875 -45.15625 L 27.53125 -45.15625 L 43.46875 0 Z M 27.65625 -18.703125 L 24.390625 -29.15625 C 24.191406 -29.851562 23.921875 -30.75 23.578125 -31.84375 C 23.242188 -32.945312 22.90625 -34.066406 22.5625 -35.203125 C 22.226562 -36.347656 21.957031 -37.335938 21.75 -38.171875 C 21.539062 -37.335938 21.253906 -36.296875 20.890625 -35.046875 C 20.535156 -33.804688 20.191406 -32.632812 19.859375 -31.53125 C 19.535156 -30.425781 19.304688 -29.632812 19.171875 -29.15625 L 15.9375 -18.703125 Z M 27.65625 -18.703125 "/></g></g></g><g fill="#ffffff" fill-opacity="0.4"><g transform="translate(88.163984, 172.470517)"><g><path d="M 15.046875 0 L 5.65625 0 L 5.65625 -44.96875 L 31.4375 -44.96875 L 31.4375 -37.15625 L 15.046875 -37.15625 L 15.046875 -25.5625 L 30.296875 -25.5625 L 30.296875 -17.78125 L 15.046875 -17.78125 Z M 15.046875 0 "/></g></g></g><g fill="#ffffff" fill-opacity="0.4"><g transform="translate(122.733722, 172.470517)"><g><path d="M 33.1875 0 L 29.9375 -10.703125 L 13.53125 -10.703125 L 10.28125 0 L 0 0 L 15.875 -45.15625 L 27.53125 -45.15625 L 43.46875 0 Z M 27.65625 -18.703125 L 24.390625 -29.15625 C 24.191406 -29.851562 23.921875 -30.75 23.578125 -31.84375 C 23.242188 -32.945312 22.90625 -34.066406 22.5625 -35.203125 C 22.226562 -36.347656 21.957031 -37.335938 21.75 -38.171875 C 21.539062 -37.335938 21.253906 -36.296875 20.890625 -35.046875 C 20.535156 -33.804688 20.191406 -32.632812 19.859375 -31.53125 C 19.535156 -30.425781 19.304688 -29.632812 19.171875 -29.15625 L 15.9375 -18.703125 Z M 27.65625 -18.703125 "/></g></g></g><g fill="#ffffff" fill-opacity="0.4"><g transform="translate(166.191948, 172.470517)"><g><path d="M 12.484375 -44.96875 L 12.921875 -44.296875 C 12.546875 -42.796875 12.066406 -41.195312 11.484375 -39.5 C 10.898438 -37.8125 10.265625 -36.117188 9.578125 -34.421875 C 8.890625 -32.722656 8.195312 -31.101562 7.5 -29.5625 L 0.765625 -29.5625 C 1.054688 -30.789062 1.347656 -32.082031 1.640625 -33.4375 C 1.941406 -34.789062 2.226562 -36.144531 2.5 -37.5 C 2.78125 -38.851562 3.03125 -40.164062 3.25 -41.4375 C 3.476562 -42.707031 3.675781 -43.882812 3.84375 -44.96875 Z M 12.484375 -44.96875 "/></g></g></g><g fill="#ffffff" fill-opacity="0.4"><g transform="translate(179.847609, 172.470517)"><g><path d="M 32.203125 -12.484375 C 32.203125 -9.816406 31.554688 -7.5 30.265625 -5.53125 C 28.972656 -3.5625 27.09375 -2.046875 24.625 -0.984375 C 22.15625 0.078125 19.15625 0.609375 15.625 0.609375 C 14.070312 0.609375 12.550781 0.503906 11.0625 0.296875 C 9.570312 0.0976562 8.144531 -0.195312 6.78125 -0.59375 C 5.414062 -1 4.117188 -1.5 2.890625 -2.09375 L 2.890625 -10.953125 C 5.023438 -10.003906 7.238281 -9.148438 9.53125 -8.390625 C 11.832031 -7.640625 14.109375 -7.265625 16.359375 -7.265625 C 17.921875 -7.265625 19.175781 -7.46875 20.125 -7.875 C 21.082031 -8.28125 21.773438 -8.84375 22.203125 -9.5625 C 22.640625 -10.28125 22.859375 -11.101562 22.859375 -12.03125 C 22.859375 -13.15625 22.476562 -14.117188 21.71875 -14.921875 C 20.957031 -15.722656 19.914062 -16.472656 18.59375 -17.171875 C 17.269531 -17.867188 15.78125 -18.613281 14.125 -19.40625 C 13.070312 -19.90625 11.929688 -20.503906 10.703125 -21.203125 C 9.472656 -21.910156 8.300781 -22.773438 7.1875 -23.796875 C 6.082031 -24.828125 5.175781 -26.078125 4.46875 -27.546875 C 3.769531 -29.015625 3.421875 -30.773438 3.421875 -32.828125 C 3.421875 -35.515625 4.035156 -37.8125 5.265625 -39.71875 C 6.492188 -41.625 8.25 -43.082031 10.53125 -44.09375 C 12.820312 -45.113281 15.523438 -45.625 18.640625 -45.625 C 20.984375 -45.625 23.210938 -45.347656 25.328125 -44.796875 C 27.453125 -44.253906 29.675781 -43.472656 32 -42.453125 L 28.921875 -35.03125 C 26.847656 -35.875 24.988281 -36.523438 23.34375 -36.984375 C 21.707031 -37.453125 20.035156 -37.6875 18.328125 -37.6875 C 17.140625 -37.6875 16.125 -37.492188 15.28125 -37.109375 C 14.445312 -36.734375 13.8125 -36.203125 13.375 -35.515625 C 12.945312 -34.828125 12.734375 -34.03125 12.734375 -33.125 C 12.734375 -32.0625 13.046875 -31.164062 13.671875 -30.4375 C 14.296875 -29.707031 15.238281 -29.003906 16.5 -28.328125 C 17.757812 -27.648438 19.332031 -26.863281 21.21875 -25.96875 C 23.519531 -24.875 25.484375 -23.738281 27.109375 -22.5625 C 28.742188 -21.382812 30 -20 30.875 -18.40625 C 31.757812 -16.820312 32.203125 -14.847656 32.203125 -12.484375 Z M 32.203125 -12.484375 "/></g></g></g><g fill="#ffffff" fill-opacity="0.4"><g transform="translate(214.540371, 172.470517)"><g/></g></g><g fill="#ffffff" fill-opacity="0.4"><g transform="translate(230.902561, 172.470517)"><g><path d="M 22.734375 -25.25 L 40.578125 -25.25 L 40.578125 -1.9375 C 38.210938 -1.15625 35.757812 -0.535156 33.21875 -0.078125 C 30.675781 0.378906 27.796875 0.609375 24.578125 0.609375 C 20.109375 0.609375 16.3125 -0.269531 13.1875 -2.03125 C 10.070312 -3.789062 7.703125 -6.394531 6.078125 -9.84375 C 4.460938 -13.289062 3.65625 -17.523438 3.65625 -22.546875 C 3.65625 -27.265625 4.5625 -31.34375 6.375 -34.78125 C 8.195312 -38.226562 10.851562 -40.894531 14.34375 -42.78125 C 17.84375 -44.675781 22.113281 -45.625 27.15625 -45.625 C 29.539062 -45.625 31.890625 -45.363281 34.203125 -44.84375 C 36.523438 -44.332031 38.628906 -43.664062 40.515625 -42.84375 L 37.34375 -35.21875 C 35.96875 -35.914062 34.398438 -36.5 32.640625 -36.96875 C 30.878906 -37.445312 29.03125 -37.6875 27.09375 -37.6875 C 24.332031 -37.6875 21.929688 -37.050781 19.890625 -35.78125 C 17.847656 -34.507812 16.265625 -32.726562 15.140625 -30.4375 C 14.023438 -28.15625 13.46875 -25.460938 13.46875 -22.359375 C 13.46875 -19.429688 13.867188 -16.832031 14.671875 -14.5625 C 15.472656 -12.300781 16.734375 -10.53125 18.453125 -9.25 C 20.179688 -7.96875 22.425781 -7.328125 25.1875 -7.328125 C 26.539062 -7.328125 27.6875 -7.390625 28.625 -7.515625 C 29.5625 -7.648438 30.4375 -7.789062 31.25 -7.9375 L 31.25 -17.3125 L 22.734375 -17.3125 Z M 22.734375 -25.25 "/></g></g></g><g fill="#ffffff" fill-opacity="0.4"><g transform="translate(276.513695, 172.470517)"><g><path d="M 19.65625 -26.453125 L 29.046875 -44.96875 L 39.3125 -44.96875 L 24.390625 -17.5 L 24.390625 0 L 14.921875 0 L 14.921875 -17.203125 L 0 -44.96875 L 10.34375 -44.96875 Z M 19.65625 -26.453125 "/></g></g></g><g fill="#ffffff" fill-opacity="0.4"><g transform="translate(315.819868, 172.470517)"><g><path d="M 24.703125 0 L 13.875 -35.28125 L 13.59375 -35.28125 C 13.632812 -34.4375 13.703125 -33.171875 13.796875 -31.484375 C 13.890625 -29.796875 13.976562 -27.992188 14.0625 -26.078125 C 14.144531 -24.171875 14.1875 -22.453125 14.1875 -20.921875 L 14.1875 0 L 5.65625 0 L 5.65625 -44.96875 L 18.640625 -44.96875 L 29.28125 -10.578125 L 29.46875 -10.578125 L 40.765625 -44.96875 L 53.734375 -44.96875 L 53.734375 0 L 44.84375 0 L 44.84375 -21.28125 C 44.84375 -22.695312 44.867188 -24.328125 44.921875 -26.171875 C 44.972656 -28.023438 45.039062 -29.785156 45.125 -31.453125 C 45.207031 -33.128906 45.269531 -34.382812 45.3125 -35.21875 L 45.03125 -35.21875 L 33.4375 0 Z M 24.703125 0 "/></g></g></g><g fill="#ffffff" fill-opacity="0.4"><g transform="translate(8.068965, 260.220511)"><g><path d="M 60.90625 -44.96875 L 49.46875 0 L 38.609375 0 L 32.515625 -23.625 C 32.390625 -24.070312 32.222656 -24.757812 32.015625 -25.6875 C 31.816406 -26.613281 31.601562 -27.625 31.375 -28.71875 C 31.144531 -29.8125 30.941406 -30.84375 30.765625 -31.8125 C 30.597656 -32.789062 30.484375 -33.566406 30.421875 -34.140625 C 30.359375 -33.566406 30.238281 -32.796875 30.0625 -31.828125 C 29.894531 -30.867188 29.703125 -29.84375 29.484375 -28.75 C 29.265625 -27.664062 29.050781 -26.648438 28.84375 -25.703125 C 28.644531 -24.765625 28.484375 -24.050781 28.359375 -23.5625 L 22.296875 0 L 11.46875 0 L 0 -44.96875 L 9.375 -44.96875 L 15.140625 -20.421875 C 15.296875 -19.679688 15.484375 -18.800781 15.703125 -17.78125 C 15.921875 -16.757812 16.132812 -15.6875 16.34375 -14.5625 C 16.5625 -13.445312 16.757812 -12.367188 16.9375 -11.328125 C 17.113281 -10.296875 17.238281 -9.398438 17.3125 -8.640625 C 17.414062 -9.421875 17.550781 -10.328125 17.71875 -11.359375 C 17.882812 -12.398438 18.0625 -13.457031 18.25 -14.53125 C 18.445312 -15.613281 18.648438 -16.613281 18.859375 -17.53125 C 19.066406 -18.457031 19.25 -19.207031 19.40625 -19.78125 L 25.96875 -44.96875 L 34.96875 -44.96875 L 41.53125 -19.78125 C 41.675781 -19.226562 41.84375 -18.484375 42.03125 -17.546875 C 42.226562 -16.617188 42.425781 -15.609375 42.625 -14.515625 C 42.832031 -13.429688 43.023438 -12.367188 43.203125 -11.328125 C 43.378906 -10.296875 43.507812 -9.398438 43.59375 -8.640625 C 43.738281 -9.671875 43.9375 -10.914062 44.1875 -12.375 C 44.445312 -13.84375 44.722656 -15.304688 45.015625 -16.765625 C 45.316406 -18.222656 45.578125 -19.441406 45.796875 -20.421875 L 51.53125 -44.96875 Z M 60.90625 -44.96875 "/></g></g></g><g fill="#ffffff" fill-opacity="0.4"><g transform="translate(68.965835, 260.220511)"><g><path d="M 18.765625 -44.96875 C 22.847656 -44.96875 26.21875 -44.472656 28.875 -43.484375 C 31.53125 -42.503906 33.503906 -41.019531 34.796875 -39.03125 C 36.085938 -37.039062 36.734375 -34.53125 36.734375 -31.5 C 36.734375 -29.445312 36.34375 -27.648438 35.5625 -26.109375 C 34.78125 -24.578125 33.753906 -23.273438 32.484375 -22.203125 C 31.210938 -21.140625 29.835938 -20.269531 28.359375 -19.59375 L 41.59375 0 L 31.015625 0 L 20.265625 -17.25 L 15.203125 -17.25 L 15.203125 0 L 5.65625 0 L 5.65625 -44.96875 Z M 18.09375 -37.15625 L 15.203125 -37.15625 L 15.203125 -25.015625 L 18.265625 -25.015625 C 21.429688 -25.015625 23.691406 -25.539062 25.046875 -26.59375 C 26.410156 -27.644531 27.09375 -29.195312 27.09375 -31.25 C 27.09375 -33.382812 26.359375 -34.898438 24.890625 -35.796875 C 23.429688 -36.703125 21.164062 -37.15625 18.09375 -37.15625 Z M 18.09375 -37.15625 "/></g></g></g><g fill="#ffffff" fill-opacity="0.4"><g transform="translate(110.547939, 260.220511)"><g><path d="M 31.5625 0 L 5.65625 0 L 5.65625 -44.96875 L 31.5625 -44.96875 L 31.5625 -37.15625 L 15.203125 -37.15625 L 15.203125 -27.28125 L 30.421875 -27.28125 L 30.421875 -19.46875 L 15.203125 -19.46875 L 15.203125 -7.875 L 31.5625 -7.875 Z M 31.5625 0 "/></g></g></g><g fill="#ffffff" fill-opacity="0.4"><g transform="translate(145.825071, 260.220511)"><g><path d="M 32.203125 -12.484375 C 32.203125 -9.816406 31.554688 -7.5 30.265625 -5.53125 C 28.972656 -3.5625 27.09375 -2.046875 24.625 -0.984375 C 22.15625 0.078125 19.15625 0.609375 15.625 0.609375 C 14.070312 0.609375 12.550781 0.503906 11.0625 0.296875 C 9.570312 0.0976562 8.144531 -0.195312 6.78125 -0.59375 C 5.414062 -1 4.117188 -1.5 2.890625 -2.09375 L 2.890625 -10.953125 C 5.023438 -10.003906 7.238281 -9.148438 9.53125 -8.390625 C 11.832031 -7.640625 14.109375 -7.265625 16.359375 -7.265625 C 17.921875 -7.265625 19.175781 -7.46875 20.125 -7.875 C 21.082031 -8.28125 21.773438 -8.84375 22.203125 -9.5625 C 22.640625 -10.28125 22.859375 -11.101562 22.859375 -12.03125 C 22.859375 -13.15625 22.476562 -14.117188 21.71875 -14.921875 C 20.957031 -15.722656 19.914062 -16.472656 18.59375 -17.171875 C 17.269531 -17.867188 15.78125 -18.613281 14.125 -19.40625 C 13.070312 -19.90625 11.929688 -20.503906 10.703125 -21.203125 C 9.472656 -21.910156 8.300781 -22.773438 7.1875 -23.796875 C 6.082031 -24.828125 5.175781 -26.078125 4.46875 -27.546875 C 3.769531 -29.015625 3.421875 -30.773438 3.421875 -32.828125 C 3.421875 -35.515625 4.035156 -37.8125 5.265625 -39.71875 C 6.492188 -41.625 8.25 -43.082031 10.53125 -44.09375 C 12.820312 -45.113281 15.523438 -45.625 18.640625 -45.625 C 20.984375 -45.625 23.210938 -45.347656 25.328125 -44.796875 C 27.453125 -44.253906 29.675781 -43.472656 32 -42.453125 L 28.921875 -35.03125 C 26.847656 -35.875 24.988281 -36.523438 23.34375 -36.984375 C 21.707031 -37.453125 20.035156 -37.6875 18.328125 -37.6875 C 17.140625 -37.6875 16.125 -37.492188 15.28125 -37.109375 C 14.445312 -36.734375 13.8125 -36.203125 13.375 -35.515625 C 12.945312 -34.828125 12.734375 -34.03125 12.734375 -33.125 C 12.734375 -32.0625 13.046875 -31.164062 13.671875 -30.4375 C 14.296875 -29.707031 15.238281 -29.003906 16.5 -28.328125 C 17.757812 -27.648438 19.332031 -26.863281 21.21875 -25.96875 C 23.519531 -24.875 25.484375 -23.738281 27.109375 -22.5625 C 28.742188 -21.382812 30 -20 30.875 -18.40625 C 31.757812 -16.820312 32.203125 -14.847656 32.203125 -12.484375 Z M 32.203125 -12.484375 "/></g></g></g><g fill="#ffffff" fill-opacity="0.4"><g transform="translate(180.517833, 260.220511)"><g><path d="M 23.015625 0 L 13.46875 0 L 13.46875 -37.03125 L 1.265625 -37.03125 L 1.265625 -44.96875 L 35.21875 -44.96875 L 35.21875 -37.03125 L 23.015625 -37.03125 Z M 23.015625 0 "/></g></g></g><g fill="#ffffff" fill-opacity="0.4"><g transform="translate(216.994443, 260.220511)"><g><path d="M 5.65625 0 L 5.65625 -44.96875 L 15.203125 -44.96875 L 15.203125 -7.875 L 33.4375 -7.875 L 33.4375 0 Z M 5.65625 0 "/></g></g></g><g fill="#ffffff" fill-opacity="0.4"><g transform="translate(252.579135, 260.220511)"><g><path d="M 5.65625 0 L 5.65625 -44.96875 L 15.203125 -44.96875 L 15.203125 0 Z M 5.65625 0 "/></g></g></g><g fill="#ffffff" fill-opacity="0.4"><g transform="translate(273.431711, 260.220511)"><g><path d="M 45.5625 0 L 33.4375 0 L 13.875 -34.015625 L 13.59375 -34.015625 C 13.675781 -32.609375 13.75 -31.1875 13.8125 -29.75 C 13.875 -28.3125 13.9375 -26.878906 14 -25.453125 C 14.0625 -24.023438 14.125 -22.597656 14.1875 -21.171875 L 14.1875 0 L 5.65625 0 L 5.65625 -44.96875 L 17.6875 -44.96875 L 37.21875 -11.296875 L 37.4375 -11.296875 C 37.394531 -12.679688 37.34375 -14.0625 37.28125 -15.4375 C 37.21875 -16.8125 37.160156 -18.1875 37.109375 -19.5625 C 37.054688 -20.9375 37.007812 -22.3125 36.96875 -23.6875 L 36.96875 -44.96875 L 45.5625 -44.96875 Z M 45.5625 0 "/></g></g></g><g fill="#ffffff" fill-opacity="0.4"><g transform="translate(324.640447, 260.220511)"><g><path d="M 22.734375 -25.25 L 40.578125 -25.25 L 40.578125 -1.9375 C 38.210938 -1.15625 35.757812 -0.535156 33.21875 -0.078125 C 30.675781 0.378906 27.796875 0.609375 24.578125 0.609375 C 20.109375 0.609375 16.3125 -0.269531 13.1875 -2.03125 C 10.070312 -3.789062 7.703125 -6.394531 6.078125 -9.84375 C 4.460938 -13.289062 3.65625 -17.523438 3.65625 -22.546875 C 3.65625 -27.265625 4.5625 -31.34375 6.375 -34.78125 C 8.195312 -38.226562 10.851562 -40.894531 14.34375 -42.78125 C 17.84375 -44.675781 22.113281 -45.625 27.15625 -45.625 C 29.539062 -45.625 31.890625 -45.363281 34.203125 -44.84375 C 36.523438 -44.332031 38.628906 -43.664062 40.515625 -42.84375 L 37.34375 -35.21875 C 35.96875 -35.914062 34.398438 -36.5 32.640625 -36.96875 C 30.878906 -37.445312 29.03125 -37.6875 27.09375 -37.6875 C 24.332031 -37.6875 21.929688 -37.050781 19.890625 -35.78125 C 17.847656 -34.507812 16.265625 -32.726562 15.140625 -30.4375 C 14.023438 -28.15625 13.46875 -25.460938 13.46875 -22.359375 C 13.46875 -19.429688 13.867188 -16.832031 14.671875 -14.5625 C 15.472656 -12.300781 16.734375 -10.53125 18.453125 -9.25 C 20.179688 -7.96875 22.425781 -7.328125 25.1875 -7.328125 C 26.539062 -7.328125 27.6875 -7.390625 28.625 -7.515625 C 29.5625 -7.648438 30.4375 -7.789062 31.25 -7.9375 L 31.25 -17.3125 L 22.734375 -17.3125 Z M 22.734375 -25.25 "/></g></g></g><g fill="#ffffff" fill-opacity="1"><g transform="translate(1.453129, 170.799994)"><g><path d="M 18.765625 -44.96875 C 22.847656 -44.96875 26.21875 -44.472656 28.875 -43.484375 C 31.53125 -42.503906 33.503906 -41.019531 34.796875 -39.03125 C 36.085938 -37.039062 36.734375 -34.53125 36.734375 -31.5 C 36.734375 -29.445312 36.34375 -27.648438 35.5625 -26.109375 C 34.78125 -24.578125 33.753906 -23.273438 32.484375 -22.203125 C 31.210938 -21.140625 29.835938 -20.269531 28.359375 -19.59375 L 41.59375 0 L 31.015625 0 L 20.265625 -17.25 L 15.203125 -17.25 L 15.203125 0 L 5.65625 0 L 5.65625 -44.96875 Z M 18.09375 -37.15625 L 15.203125 -37.15625 L 15.203125 -25.015625 L 18.265625 -25.015625 C 21.429688 -25.015625 23.691406 -25.539062 25.046875 -26.59375 C 26.410156 -27.644531 27.09375 -29.195312 27.09375 -31.25 C 27.09375 -33.382812 26.359375 -34.898438 24.890625 -35.796875 C 23.429688 -36.703125 21.164062 -37.15625 18.09375 -37.15625 Z M 18.09375 -37.15625 "/></g></g></g><g fill="#ffffff" fill-opacity="1"><g transform="translate(43.035234, 170.799994)"><g><path d="M 33.1875 0 L 29.9375 -10.703125 L 13.53125 -10.703125 L 10.28125 0 L 0 0 L 15.875 -45.15625 L 27.53125 -45.15625 L 43.46875 0 Z M 27.65625 -18.703125 L 24.390625 -29.15625 C 24.191406 -29.851562 23.921875 -30.75 23.578125 -31.84375 C 23.242188 -32.945312 22.90625 -34.066406 22.5625 -35.203125 C 22.226562 -36.347656 21.957031 -37.335938 21.75 -38.171875 C 21.539062 -37.335938 21.253906 -36.296875 20.890625 -35.046875 C 20.535156 -33.804688 20.191406 -32.632812 19.859375 -31.53125 C 19.535156 -30.425781 19.304688 -29.632812 19.171875 -29.15625 L 15.9375 -18.703125 Z M 27.65625 -18.703125 "/></g></g></g><g fill="#ffffff" fill-opacity="1"><g transform="translate(86.49346, 170.799994)"><g><path d="M 15.046875 0 L 5.65625 0 L 5.65625 -44.96875 L 31.4375 -44.96875 L 31.4375 -37.15625 L 15.046875 -37.15625 L 15.046875 -25.5625 L 30.296875 -25.5625 L 30.296875 -17.78125 L 15.046875 -17.78125 Z M 15.046875 0 "/></g></g></g><g fill="#ffffff" fill-opacity="1"><g transform="translate(121.063198, 170.799994)"><g><path d="M 33.1875 0 L 29.9375 -10.703125 L 13.53125 -10.703125 L 10.28125 0 L 0 0 L 15.875 -45.15625 L 27.53125 -45.15625 L 43.46875 0 Z M 27.65625 -18.703125 L 24.390625 -29.15625 C 24.191406 -29.851562 23.921875 -30.75 23.578125 -31.84375 C 23.242188 -32.945312 22.90625 -34.066406 22.5625 -35.203125 C 22.226562 -36.347656 21.957031 -37.335938 21.75 -38.171875 C 21.539062 -37.335938 21.253906 -36.296875 20.890625 -35.046875 C 20.535156 -33.804688 20.191406 -32.632812 19.859375 -31.53125 C 19.535156 -30.425781 19.304688 -29.632812 19.171875 -29.15625 L 15.9375 -18.703125 Z M 27.65625 -18.703125 "/></g></g></g><g fill="#ffffff" fill-opacity="1"><g transform="translate(164.521424, 170.799994)"><g><path d="M 12.484375 -44.96875 L 12.921875 -44.296875 C 12.546875 -42.796875 12.066406 -41.195312 11.484375 -39.5 C 10.898438 -37.8125 10.265625 -36.117188 9.578125 -34.421875 C 8.890625 -32.722656 8.195312 -31.101562 7.5 -29.5625 L 0.765625 -29.5625 C 1.054688 -30.789062 1.347656 -32.082031 1.640625 -33.4375 C 1.941406 -34.789062 2.226562 -36.144531 2.5 -37.5 C 2.78125 -38.851562 3.03125 -40.164062 3.25 -41.4375 C 3.476562 -42.707031 3.675781 -43.882812 3.84375 -44.96875 Z M 12.484375 -44.96875 "/></g></g></g><g fill="#ffffff" fill-opacity="1"><g transform="translate(178.177086, 170.799994)"><g><path d="M 32.203125 -12.484375 C 32.203125 -9.816406 31.554688 -7.5 30.265625 -5.53125 C 28.972656 -3.5625 27.09375 -2.046875 24.625 -0.984375 C 22.15625 0.078125 19.15625 0.609375 15.625 0.609375 C 14.070312 0.609375 12.550781 0.503906 11.0625 0.296875 C 9.570312 0.0976562 8.144531 -0.195312 6.78125 -0.59375 C 5.414062 -1 4.117188 -1.5 2.890625 -2.09375 L 2.890625 -10.953125 C 5.023438 -10.003906 7.238281 -9.148438 9.53125 -8.390625 C 11.832031 -7.640625 14.109375 -7.265625 16.359375 -7.265625 C 17.921875 -7.265625 19.175781 -7.46875 20.125 -7.875 C 21.082031 -8.28125 21.773438 -8.84375 22.203125 -9.5625 C 22.640625 -10.28125 22.859375 -11.101562 22.859375 -12.03125 C 22.859375 -13.15625 22.476562 -14.117188 21.71875 -14.921875 C 20.957031 -15.722656 19.914062 -16.472656 18.59375 -17.171875 C 17.269531 -17.867188 15.78125 -18.613281 14.125 -19.40625 C 13.070312 -19.90625 11.929688 -20.503906 10.703125 -21.203125 C 9.472656 -21.910156 8.300781 -22.773438 7.1875 -23.796875 C 6.082031 -24.828125 5.175781 -26.078125 4.46875 -27.546875 C 3.769531 -29.015625 3.421875 -30.773438 3.421875 -32.828125 C 3.421875 -35.515625 4.035156 -37.8125 5.265625 -39.71875 C 6.492188 -41.625 8.25 -43.082031 10.53125 -44.09375 C 12.820312 -45.113281 15.523438 -45.625 18.640625 -45.625 C 20.984375 -45.625 23.210938 -45.347656 25.328125 -44.796875 C 27.453125 -44.253906 29.675781 -43.472656 32 -42.453125 L 28.921875 -35.03125 C 26.847656 -35.875 24.988281 -36.523438 23.34375 -36.984375 C 21.707031 -37.453125 20.035156 -37.6875 18.328125 -37.6875 C 17.140625 -37.6875 16.125 -37.492188 15.28125 -37.109375 C 14.445312 -36.734375 13.8125 -36.203125 13.375 -35.515625 C 12.945312 -34.828125 12.734375 -34.03125 12.734375 -33.125 C 12.734375 -32.0625 13.046875 -31.164062 13.671875 -30.4375 C 14.296875 -29.707031 15.238281 -29.003906 16.5 -28.328125 C 17.757812 -27.648438 19.332031 -26.863281 21.21875 -25.96875 C 23.519531 -24.875 25.484375 -23.738281 27.109375 -22.5625 C 28.742188 -21.382812 30 -20 30.875 -18.40625 C 31.757812 -16.820312 32.203125 -14.847656 32.203125 -12.484375 Z M 32.203125 -12.484375 "/></g></g></g><g fill="#ffffff" fill-opacity="1"><g transform="translate(212.869848, 170.799994)"><g/></g></g><g fill="#ffffff" fill-opacity="1"><g transform="translate(229.232037, 170.799994)"><g><path d="M 22.734375 -25.25 L 40.578125 -25.25 L 40.578125 -1.9375 C 38.210938 -1.15625 35.757812 -0.535156 33.21875 -0.078125 C 30.675781 0.378906 27.796875 0.609375 24.578125 0.609375 C 20.109375 0.609375 16.3125 -0.269531 13.1875 -2.03125 C 10.070312 -3.789062 7.703125 -6.394531 6.078125 -9.84375 C 4.460938 -13.289062 3.65625 -17.523438 3.65625 -22.546875 C 3.65625 -27.265625 4.5625 -31.34375 6.375 -34.78125 C 8.195312 -38.226562 10.851562 -40.894531 14.34375 -42.78125 C 17.84375 -44.675781 22.113281 -45.625 27.15625 -45.625 C 29.539062 -45.625 31.890625 -45.363281 34.203125 -44.84375 C 36.523438 -44.332031 38.628906 -43.664062 40.515625 -42.84375 L 37.34375 -35.21875 C 35.96875 -35.914062 34.398438 -36.5 32.640625 -36.96875 C 30.878906 -37.445312 29.03125 -37.6875 27.09375 -37.6875 C 24.332031 -37.6875 21.929688 -37.050781 19.890625 -35.78125 C 17.847656 -34.507812 16.265625 -32.726562 15.140625 -30.4375 C 14.023438 -28.15625 13.46875 -25.460938 13.46875 -22.359375 C 13.46875 -19.429688 13.867188 -16.832031 14.671875 -14.5625 C 15.472656 -12.300781 16.734375 -10.53125 18.453125 -9.25 C 20.179688 -7.96875 22.425781 -7.328125 25.1875 -7.328125 C 26.539062 -7.328125 27.6875 -7.390625 28.625 -7.515625 C 29.5625 -7.648438 30.4375 -7.789062 31.25 -7.9375 L 31.25 -17.3125 L 22.734375 -17.3125 Z M 22.734375 -25.25 "/></g></g></g><g fill="#ffffff" fill-opacity="1"><g transform="translate(274.843171, 170.799994)"><g><path d="M 19.65625 -26.453125 L 29.046875 -44.96875 L 39.3125 -44.96875 L 24.390625 -17.5 L 24.390625 0 L 14.921875 0 L 14.921875 -17.203125 L 0 -44.96875 L 10.34375 -44.96875 Z M 19.65625 -26.453125 "/></g></g></g><g fill="#ffffff" fill-opacity="1"><g transform="translate(314.149344, 170.799994)"><g><path d="M 24.703125 0 L 13.875 -35.28125 L 13.59375 -35.28125 C 13.632812 -34.4375 13.703125 -33.171875 13.796875 -31.484375 C 13.890625 -29.796875 13.976562 -27.992188 14.0625 -26.078125 C 14.144531 -24.171875 14.1875 -22.453125 14.1875 -20.921875 L 14.1875 0 L 5.65625 0 L 5.65625 -44.96875 L 18.640625 -44.96875 L 29.28125 -10.578125 L 29.46875 -10.578125 L 40.765625 -44.96875 L 53.734375 -44.96875 L 53.734375 0 L 44.84375 0 L 44.84375 -21.28125 C 44.84375 -22.695312 44.867188 -24.328125 44.921875 -26.171875 C 44.972656 -28.023438 45.039062 -29.785156 45.125 -31.453125 C 45.207031 -33.128906 45.269531 -34.382812 45.3125 -35.21875 L 45.03125 -35.21875 L 33.4375 0 Z M 24.703125 0 "/></g></g></g><g fill="#ffffff" fill-opacity="1"><g transform="translate(6.398442, 258.549989)"><g><path d="M 60.90625 -44.96875 L 49.46875 0 L 38.609375 0 L 32.515625 -23.625 C 32.390625 -24.070312 32.222656 -24.757812 32.015625 -25.6875 C 31.816406 -26.613281 31.601562 -27.625 31.375 -28.71875 C 31.144531 -29.8125 30.941406 -30.84375 30.765625 -31.8125 C 30.597656 -32.789062 30.484375 -33.566406 30.421875 -34.140625 C 30.359375 -33.566406 30.238281 -32.796875 30.0625 -31.828125 C 29.894531 -30.867188 29.703125 -29.84375 29.484375 -28.75 C 29.265625 -27.664062 29.050781 -26.648438 28.84375 -25.703125 C 28.644531 -24.765625 28.484375 -24.050781 28.359375 -23.5625 L 22.296875 0 L 11.46875 0 L 0 -44.96875 L 9.375 -44.96875 L 15.140625 -20.421875 C 15.296875 -19.679688 15.484375 -18.800781 15.703125 -17.78125 C 15.921875 -16.757812 16.132812 -15.6875 16.34375 -14.5625 C 16.5625 -13.445312 16.757812 -12.367188 16.9375 -11.328125 C 17.113281 -10.296875 17.238281 -9.398438 17.3125 -8.640625 C 17.414062 -9.421875 17.550781 -10.328125 17.71875 -11.359375 C 17.882812 -12.398438 18.0625 -13.457031 18.25 -14.53125 C 18.445312 -15.613281 18.648438 -16.613281 18.859375 -17.53125 C 19.066406 -18.457031 19.25 -19.207031 19.40625 -19.78125 L 25.96875 -44.96875 L 34.96875 -44.96875 L 41.53125 -19.78125 C 41.675781 -19.226562 41.84375 -18.484375 42.03125 -17.546875 C 42.226562 -16.617188 42.425781 -15.609375 42.625 -14.515625 C 42.832031 -13.429688 43.023438 -12.367188 43.203125 -11.328125 C 43.378906 -10.296875 43.507812 -9.398438 43.59375 -8.640625 C 43.738281 -9.671875 43.9375 -10.914062 44.1875 -12.375 C 44.445312 -13.84375 44.722656 -15.304688 45.015625 -16.765625 C 45.316406 -18.222656 45.578125 -19.441406 45.796875 -20.421875 L 51.53125 -44.96875 Z M 60.90625 -44.96875 "/></g></g></g><g fill="#ffffff" fill-opacity="1"><g transform="translate(67.295311, 258.549989)"><g><path d="M 18.765625 -44.96875 C 22.847656 -44.96875 26.21875 -44.472656 28.875 -43.484375 C 31.53125 -42.503906 33.503906 -41.019531 34.796875 -39.03125 C 36.085938 -37.039062 36.734375 -34.53125 36.734375 -31.5 C 36.734375 -29.445312 36.34375 -27.648438 35.5625 -26.109375 C 34.78125 -24.578125 33.753906 -23.273438 32.484375 -22.203125 C 31.210938 -21.140625 29.835938 -20.269531 28.359375 -19.59375 L 41.59375 0 L 31.015625 0 L 20.265625 -17.25 L 15.203125 -17.25 L 15.203125 0 L 5.65625 0 L 5.65625 -44.96875 Z M 18.09375 -37.15625 L 15.203125 -37.15625 L 15.203125 -25.015625 L 18.265625 -25.015625 C 21.429688 -25.015625 23.691406 -25.539062 25.046875 -26.59375 C 26.410156 -27.644531 27.09375 -29.195312 27.09375 -31.25 C 27.09375 -33.382812 26.359375 -34.898438 24.890625 -35.796875 C 23.429688 -36.703125 21.164062 -37.15625 18.09375 -37.15625 Z M 18.09375 -37.15625 "/></g></g></g><g fill="#ffffff" fill-opacity="1"><g transform="translate(108.877416, 258.549989)"><g><path d="M 31.5625 0 L 5.65625 0 L 5.65625 -44.96875 L 31.5625 -44.96875 L 31.5625 -37.15625 L 15.203125 -37.15625 L 15.203125 -27.28125 L 30.421875 -27.28125 L 30.421875 -19.46875 L 15.203125 -19.46875 L 15.203125 -7.875 L 31.5625 -7.875 Z M 31.5625 0 "/></g></g></g><g fill="#ffffff" fill-opacity="1"><g transform="translate(144.154548, 258.549989)"><g><path d="M 32.203125 -12.484375 C 32.203125 -9.816406 31.554688 -7.5 30.265625 -5.53125 C 28.972656 -3.5625 27.09375 -2.046875 24.625 -0.984375 C 22.15625 0.078125 19.15625 0.609375 15.625 0.609375 C 14.070312 0.609375 12.550781 0.503906 11.0625 0.296875 C 9.570312 0.0976562 8.144531 -0.195312 6.78125 -0.59375 C 5.414062 -1 4.117188 -1.5 2.890625 -2.09375 L 2.890625 -10.953125 C 5.023438 -10.003906 7.238281 -9.148438 9.53125 -8.390625 C 11.832031 -7.640625 14.109375 -7.265625 16.359375 -7.265625 C 17.921875 -7.265625 19.175781 -7.46875 20.125 -7.875 C 21.082031 -8.28125 21.773438 -8.84375 22.203125 -9.5625 C 22.640625 -10.28125 22.859375 -11.101562 22.859375 -12.03125 C 22.859375 -13.15625 22.476562 -14.117188 21.71875 -14.921875 C 20.957031 -15.722656 19.914062 -16.472656 18.59375 -17.171875 C 17.269531 -17.867188 15.78125 -18.613281 14.125 -19.40625 C 13.070312 -19.90625 11.929688 -20.503906 10.703125 -21.203125 C 9.472656 -21.910156 8.300781 -22.773438 7.1875 -23.796875 C 6.082031 -24.828125 5.175781 -26.078125 4.46875 -27.546875 C 3.769531 -29.015625 3.421875 -30.773438 3.421875 -32.828125 C 3.421875 -35.515625 4.035156 -37.8125 5.265625 -39.71875 C 6.492188 -41.625 8.25 -43.082031 10.53125 -44.09375 C 12.820312 -45.113281 15.523438 -45.625 18.640625 -45.625 C 20.984375 -45.625 23.210938 -45.347656 25.328125 -44.796875 C 27.453125 -44.253906 29.675781 -43.472656 32 -42.453125 L 28.921875 -35.03125 C 26.847656 -35.875 24.988281 -36.523438 23.34375 -36.984375 C 21.707031 -37.453125 20.035156 -37.6875 18.328125 -37.6875 C 17.140625 -37.6875 16.125 -37.492188 15.28125 -37.109375 C 14.445312 -36.734375 13.8125 -36.203125 13.375 -35.515625 C 12.945312 -34.828125 12.734375 -34.03125 12.734375 -33.125 C 12.734375 -32.0625 13.046875 -31.164062 13.671875 -30.4375 C 14.296875 -29.707031 15.238281 -29.003906 16.5 -28.328125 C 17.757812 -27.648438 19.332031 -26.863281 21.21875 -25.96875 C 23.519531 -24.875 25.484375 -23.738281 27.109375 -22.5625 C 28.742188 -21.382812 30 -20 30.875 -18.40625 C 31.757812 -16.820312 32.203125 -14.847656 32.203125 -12.484375 Z M 32.203125 -12.484375 "/></g></g></g><g fill="#ffffff" fill-opacity="1"><g transform="translate(178.84731, 258.549989)"><g><path d="M 23.015625 0 L 13.46875 0 L 13.46875 -37.03125 L 1.265625 -37.03125 L 1.265625 -44.96875 L 35.21875 -44.96875 L 35.21875 -37.03125 L 23.015625 -37.03125 Z M 23.015625 0 "/></g></g></g><g fill="#ffffff" fill-opacity="1"><g transform="translate(215.323919, 258.549989)"><g><path d="M 5.65625 0 L 5.65625 -44.96875 L 15.203125 -44.96875 L 15.203125 -7.875 L 33.4375 -7.875 L 33.4375 0 Z M 5.65625 0 "/></g></g></g><g fill="#ffffff" fill-opacity="1"><g transform="translate(250.908611, 258.549989)"><g><path d="M 5.65625 0 L 5.65625 -44.96875 L 15.203125 -44.96875 L 15.203125 0 Z M 5.65625 0 "/></g></g></g><g fill="#ffffff" fill-opacity="1"><g transform="translate(271.761187, 258.549989)"><g><path d="M 45.5625 0 L 33.4375 0 L 13.875 -34.015625 L 13.59375 -34.015625 C 13.675781 -32.609375 13.75 -31.1875 13.8125 -29.75 C 13.875 -28.3125 13.9375 -26.878906 14 -25.453125 C 14.0625 -24.023438 14.125 -22.597656 14.1875 -21.171875 L 14.1875 0 L 5.65625 0 L 5.65625 -44.96875 L 17.6875 -44.96875 L 37.21875 -11.296875 L 37.4375 -11.296875 C 37.394531 -12.679688 37.34375 -14.0625 37.28125 -15.4375 C 37.21875 -16.8125 37.160156 -18.1875 37.109375 -19.5625 C 37.054688 -20.9375 37.007812 -22.3125 36.96875 -23.6875 L 36.96875 -44.96875 L 45.5625 -44.96875 Z M 45.5625 0 "/></g></g></g><g fill="#ffffff" fill-opacity="1"><g transform="translate(322.969924, 258.549989)"><g><path d="M 22.734375 -25.25 L 40.578125 -25.25 L 40.578125 -1.9375 C 38.210938 -1.15625 35.757812 -0.535156 33.21875 -0.078125 C 30.675781 0.378906 27.796875 0.609375 24.578125 0.609375 C 20.109375 0.609375 16.3125 -0.269531 13.1875 -2.03125 C 10.070312 -3.789062 7.703125 -6.394531 6.078125 -9.84375 C 4.460938 -13.289062 3.65625 -17.523438 3.65625 -22.546875 C 3.65625 -27.265625 4.5625 -31.34375 6.375 -34.78125 C 8.195312 -38.226562 10.851562 -40.894531 14.34375 -42.78125 C 17.84375 -44.675781 22.113281 -45.625 27.15625 -45.625 C 29.539062 -45.625 31.890625 -45.363281 34.203125 -44.84375 C 36.523438 -44.332031 38.628906 -43.664062 40.515625 -42.84375 L 37.34375 -35.21875 C 35.96875 -35.914062 34.398438 -36.5 32.640625 -36.96875 C 30.878906 -37.445312 29.03125 -37.6875 27.09375 -37.6875 C 24.332031 -37.6875 21.929688 -37.050781 19.890625 -35.78125 C 17.847656 -34.507812 16.265625 -32.726562 15.140625 -30.4375 C 14.023438 -28.15625 13.46875 -25.460938 13.46875 -22.359375 C 13.46875 -19.429688 13.867188 -16.832031 14.671875 -14.5625 C 15.472656 -12.300781 16.734375 -10.53125 18.453125 -9.25 C 20.179688 -7.96875 22.425781 -7.328125 25.1875 -7.328125 C 26.539062 -7.328125 27.6875 -7.390625 28.625 -7.515625 C 29.5625 -7.648438 30.4375 -7.789062 31.25 -7.9375 L 31.25 -17.3125 L 22.734375 -17.3125 Z M 22.734375 -25.25 "/></g></g></g></svg>